<svg width="206" height="44" fill="none" xmlns="http://www.w3.org/2000/svg">
  <path d="M206 22a21.928 21.928 0 0 1-6.444 15.556A21.93 21.93 0 0 1 184 44a21.93 21.93 0 0 1-15.556-6.444A21.928 21.928 0 0 1 162 22a21.928 21.928 0 0 1 6.444-15.556A21.93 21.93 0 0 1 184 0a21.93 21.93 0 0 1 15.556 6.444A21.928 21.928 0 0 1 206 22Z" fill="#fff"/>
  <g clip-path="url(#a)" fill="#AFB1B8">
    <path d="M193.995 32H194v-7.336c0-3.588-.772-6.352-4.968-6.352-2.016 0-3.37 1.106-3.922 2.155h-.058v-1.82h-3.978v13.352h4.142v-6.611c0-1.741.33-3.425 2.486-3.425 2.124 0 2.155 1.987 2.155 3.536V32h4.138ZM174.33 18.648h4.147V32h-4.147V18.648ZM176.402 12A2.403 2.403 0 0 0 174 14.402c0 1.325 1.076 2.424 2.402 2.424 1.325 0 2.401-1.099 2.401-2.424A2.403 2.403 0 0 0 176.402 12Z"/>
  </g>
  <path d="M152 22a21.928 21.928 0 0 1-6.444 15.556A21.93 21.93 0 0 1 130 44a21.93 21.93 0 0 1-15.556-6.444A21.928 21.928 0 0 1 108 22a21.928 21.928 0 0 1 6.444-15.556A21.93 21.93 0 0 1 130 0a21.93 21.93 0 0 1 15.556 6.444A21.928 21.928 0 0 1 152 22Z" fill="#fff"/>
  <g clip-path="url(#b)">
    <path d="M133.331 15.32h1.826v-3.18a23.6 23.6 0 0 0-2.66-.14c-2.633 0-4.436 1.656-4.436 4.7v2.8h-2.905v3.555h2.905V32h3.561v-8.944h2.788l.442-3.555h-3.23v-2.45c0-1.027.277-1.73 1.709-1.73Z" fill="#AFB1B8"/>
  </g>
  <path d="M98 22a21.931 21.931 0 0 1-6.444 15.556A21.931 21.931 0 0 1 76 44a21.931 21.931 0 0 1-15.556-6.444A21.93 21.93 0 0 1 54 22a21.93 21.93 0 0 1 6.444-15.556A21.931 21.931 0 0 1 76 0a21.931 21.931 0 0 1 15.556 6.444A21.931 21.931 0 0 1 98 22Z" fill="#fff"/>
  <g clip-path="url(#c)">
    <path d="M86 15.799a8.55 8.55 0 0 1-2.362.647 4.076 4.076 0 0 0 1.803-2.266 8.191 8.191 0 0 1-2.6.992 4.099 4.099 0 0 0-7.093 2.804c0 .325.028.638.096.935-3.409-.166-6.425-1.8-8.451-4.289a4.128 4.128 0 0 0-.562 2.073c0 1.42.731 2.679 1.822 3.407a4.048 4.048 0 0 1-1.853-.505v.045a4.119 4.119 0 0 0 3.285 4.03 4.09 4.09 0 0 1-1.075.134 3.62 3.62 0 0 1-.776-.07c.531 1.624 2.038 2.818 3.831 2.857a8.238 8.238 0 0 1-5.084 1.748 7.67 7.67 0 0 1-.981-.056 11.543 11.543 0 0 0 6.29 1.84c7.545 0 11.67-6.25 11.67-11.668 0-.18-.006-.356-.015-.53A8.179 8.179 0 0 0 86 15.8Z" fill="#AFB1B8"/>
  </g>
  <path d="M44 22a21.931 21.931 0 0 1-6.444 15.556A21.931 21.931 0 0 1 22 44a21.931 21.931 0 0 1-15.556-6.444A21.931 21.931 0 0 1 0 22 21.931 21.931 0 0 1 6.444 6.444 21.931 21.931 0 0 1 22 0a21.931 21.931 0 0 1 15.556 6.444A21.931 21.931 0 0 1 44 22Z" fill="#fff"/>
  <g clip-path="url(#d)" fill="#AFB1B8">
    <path d="M31.98 17.88c-.046-1.063-.218-1.793-.464-2.426a4.881 4.881 0 0 0-1.157-1.774 4.922 4.922 0 0 0-1.77-1.153c-.637-.246-1.363-.418-2.426-.464-1.07-.051-1.41-.063-4.126-.063-2.715 0-3.055.012-4.122.059-1.063.046-1.793.219-2.426.465a4.879 4.879 0 0 0-1.774 1.156 4.923 4.923 0 0 0-1.152 1.77c-.247.637-.418 1.363-.465 2.426-.051 1.07-.063 1.41-.063 4.126 0 2.715.012 3.055.059 4.122.047 1.063.219 1.793.465 2.426a4.932 4.932 0 0 0 1.156 1.774 4.92 4.92 0 0 0 1.77 1.152c.637.247 1.364.419 2.426.465 1.067.047 1.407.059 4.122.059 2.716 0 3.055-.012 4.122-.059 1.063-.046 1.793-.218 2.426-.464a5.116 5.116 0 0 0 2.927-2.927c.246-.637.418-1.364.465-2.426.047-1.067.058-1.407.058-4.122s-.004-3.055-.05-4.122Zm-1.8 8.166c-.044.977-.208 1.504-.344 1.855a3.318 3.318 0 0 1-1.9 1.9c-.35.136-.882.3-1.855.343-1.055.047-1.371.059-4.04.059-2.668 0-2.989-.012-4.04-.059-.977-.043-1.504-.207-1.856-.344a3.076 3.076 0 0 1-1.148-.746 3.109 3.109 0 0 1-.747-1.148c-.136-.352-.3-.883-.343-1.856-.047-1.055-.059-1.372-.059-4.04 0-2.669.012-2.99.059-4.04.043-.977.207-1.504.343-1.856a3.04 3.04 0 0 1 .75-1.149 3.104 3.104 0 0 1 1.15-.746c.35-.136.882-.3 1.855-.344 1.055-.046 1.372-.058 4.04-.058 2.672 0 2.989.011 4.04.058.977.043 1.504.207 1.856.344.433.16.828.414 1.148.746.332.325.586.715.747 1.15.136.35.3.882.343 1.855.047 1.055.059 1.371.059 4.04 0 2.668-.012 2.98-.059 4.036Z"/>
    <path d="M22.037 16.864a5.139 5.139 0 1 0 5.138 5.138 5.139 5.139 0 0 0-5.138-5.138Zm0 8.47a3.333 3.333 0 1 1 .001-6.666 3.333 3.333 0 0 1 0 6.667Zm6.541-8.673a1.2 1.2 0 1 1-2.4 0 1.2 1.2 0 0 1 2.4 0Z"/>
  </g>
  <defs>
    <clipPath id="a">
      <path fill="#fff" transform="translate(174 12)" d="M0 0h20v20H0z"/>
    </clipPath>
    <clipPath id="b">
      <path fill="#fff" transform="translate(120 12)" d="M0 0h20v20H0z"/>
    </clipPath>
    <clipPath id="c">
      <path fill="#fff" transform="translate(66 12)" d="M0 0h20v20H0z"/>
    </clipPath>
    <clipPath id="d">
      <path fill="#fff" transform="translate(12 12)" d="M0 0h20v20H0z"/>
    </clipPath>
  </defs>
</svg>
